<svg width="572" height="495" viewBox="0 0 572 495" fill="none" xmlns="http://www.w3.org/2000/svg">
<g clip-path="url(#clip0_8_20)">
<path d="M250 409.39H11.3333C8.32857 409.387 5.44787 408.243 3.32319 406.211C1.19851 404.179 0.00338163 401.423 0 398.549V88.6375C0.00338164 85.7634 1.19851 83.0079 3.32319 80.9756C5.44787 78.9433 8.32857 77.8002 11.3333 77.7969H250C253.005 77.8002 255.885 78.9433 258.01 80.9756C260.135 83.0079 261.33 85.7634 261.333 88.6375V398.549C261.33 401.423 260.135 404.179 258.01 406.211C255.885 408.243 253.005 409.387 250 409.39Z" fill="white"/>
<path d="M119.908 158.452C119.908 167.403 116.947 176.124 111.451 183.368C105.954 190.611 98.2022 196.006 89.3052 198.779C89.0392 198.86 88.7734 198.941 88.5032 199.018C87.3508 199.357 86.1821 199.646 84.9933 199.893C82.8419 200.34 80.6582 200.629 78.461 200.76C77.506 200.822 76.5456 200.853 75.5797 200.853C70.5892 200.858 65.6338 200.055 60.9232 198.478C60.7862 198.432 60.6493 198.386 60.5163 198.34C52.8841 195.703 46.1549 191.113 41.062 185.071C35.969 179.028 32.7077 171.764 31.6334 164.071C30.559 156.377 31.7129 148.549 34.9693 141.44C38.2256 134.33 43.4595 128.212 50.1006 123.752C56.7418 119.292 64.5353 116.661 72.6321 116.145C80.7288 115.63 88.8181 117.25 96.0185 120.83C103.219 124.409 109.254 129.81 113.466 136.444C117.679 143.078 119.907 150.691 119.908 158.452V158.452Z" fill="white"/>
<path d="M74.5176 186.544C86.4289 186.544 96.0849 177.308 96.0849 165.915C96.0849 154.522 86.4289 145.285 74.5176 145.285C62.6064 145.285 52.9504 154.522 52.9504 165.915C52.9504 177.308 62.6064 186.544 74.5176 186.544Z" fill="#386CBA"/>
<path d="M75.7767 177.03L75.7992 176.259C74.2998 176.219 72.9779 176.129 71.9846 175.435C71.703 175.227 71.4715 174.964 71.3059 174.662C71.1403 174.361 71.0445 174.029 71.025 173.69C71.0075 173.482 71.0403 173.273 71.1209 173.08C71.2015 172.886 71.3276 172.713 71.4895 172.574C71.8648 172.356 72.2945 172.24 72.7333 172.236C73.1721 172.232 73.6039 172.342 73.9832 172.553L74.65 172.845L73.3712 163.906L72.5727 164.011L73.6605 171.615C73.2152 171.457 72.7357 171.408 72.2657 171.473C71.7956 171.537 71.3499 171.714 70.9693 171.985C70.7133 172.199 70.5123 172.467 70.3823 172.767C70.2522 173.067 70.1966 173.392 70.2196 173.717C70.2431 174.173 70.3708 174.619 70.5935 175.024C70.8163 175.428 71.1288 175.781 71.5092 176.058C72.7855 176.95 74.444 176.994 75.7767 177.03Z" fill="#2F2E41"/>
<path d="M68.6238 164.667H64.2831V165.438H68.6238V164.667Z" fill="#2F2E41"/>
<path d="M82.3252 164.667H77.9845V165.438H82.3252V164.667Z" fill="#2F2E41"/>
<path d="M80.6451 194.755C80.7023 194.501 80.732 194.243 80.7338 193.984C80.7322 193.013 80.3284 192.083 79.6108 191.396C78.8932 190.71 77.9204 190.324 76.9055 190.322H71.2638C70.2487 190.323 69.2755 190.709 68.5577 191.396C67.84 192.082 67.4364 193.013 67.4355 193.984C67.4352 194.245 67.4649 194.504 67.524 194.759C65.3942 195.401 63.3811 196.354 61.556 197.584C61.2012 197.819 60.8507 198.074 60.5162 198.34C60.6493 198.386 60.7862 198.432 60.9232 198.478C65.6337 200.055 70.5891 200.858 75.5796 200.853C76.5468 200.853 77.5072 200.822 78.4609 200.76C80.6581 200.629 82.8418 200.34 84.9932 199.893C86.1821 199.646 87.3507 199.357 88.5032 199.018C86.2231 197.089 83.5464 195.637 80.6451 194.755Z" fill="#2F2E41"/>
<path d="M79.9198 200.271C79.3968 200.308 78.8934 200.477 78.461 200.76C80.6582 200.629 82.8419 200.34 84.9933 199.893L79.9198 200.271Z" fill="#2F2E41"/>
<path d="M94.0778 161.014L56.611 147.904C56.2096 147.763 55.8829 147.476 55.7028 147.105C55.5228 146.734 55.5042 146.31 55.651 145.926L55.7778 145.353C58.7039 137.702 68.4024 132.887 76.4008 135.686L87.9302 139.721C95.9287 142.519 99.405 151.579 96.4789 159.23L96.1454 160.096C95.9985 160.48 95.6981 160.793 95.3104 160.965C94.9227 161.137 94.4793 161.155 94.0778 161.014Z" fill="#2F2E41"/>
<path d="M96.096 161.742C43.8747 163.585 39.3116 157.309 55.2231 147.439L58.5987 141.498L97.2849 154.989L96.096 161.742Z" fill="#2F2E41"/>
<path d="M85.8564 138.78C86.1447 137.862 84.9097 136.696 83.0981 136.175C81.2864 135.654 79.584 135.976 79.2957 136.893C79.0074 137.811 80.2423 138.977 82.054 139.498C83.8657 140.019 85.5681 139.697 85.8564 138.78Z" fill="#2F2E41"/>
<path d="M75.5797 202.009C70.453 202.015 65.3623 201.19 60.5235 199.57L60.1029 199.426C49.9671 195.923 41.4589 189.094 36.0916 180.155C30.7243 171.215 28.8457 160.745 30.7898 150.605C32.734 140.465 38.375 131.314 46.7095 124.778C55.044 118.242 65.5319 114.746 76.3079 114.911C87.0839 115.076 97.4495 118.891 105.561 125.679C113.673 132.466 119.005 141.785 120.609 151.979C122.213 162.173 119.986 172.581 114.322 181.351C108.659 190.122 99.9268 196.687 89.679 199.879C89.3926 199.966 89.123 200.048 88.8491 200.126C87.7045 200.463 86.4902 200.766 85.2495 201.023C83.0381 201.482 80.7936 201.78 78.5352 201.914C77.565 201.977 76.5681 202.009 75.5797 202.009ZM75.5797 117.208C65.4331 117.21 55.6119 120.633 47.8435 126.877C40.0751 133.12 34.857 141.784 33.107 151.344C31.3569 160.904 33.187 170.748 38.2754 179.144C43.3637 187.541 51.3844 193.953 60.9268 197.252L61.3261 197.388C65.9071 198.921 70.7263 199.702 75.5797 199.697C76.514 199.697 77.456 199.666 78.3794 199.607C80.518 199.479 82.6435 199.197 84.7377 198.763C85.9112 198.519 87.0587 198.233 88.1477 197.913C88.4174 197.836 88.6734 197.758 88.9295 197.68C98.6899 194.639 106.996 188.368 112.355 179.994C117.714 171.619 119.775 161.691 118.166 151.993C116.557 142.296 111.385 133.466 103.579 127.089C95.7726 120.713 85.8447 117.21 75.5797 117.208Z" fill="#CCCCCC"/>
<path d="M250 409.39H11.3333C8.32857 409.387 5.44787 408.243 3.32319 406.211C1.19851 404.179 0.00338163 401.423 0 398.549V88.6375C0.00338164 85.7634 1.19851 83.0079 3.32319 80.9756C5.44787 78.9433 8.32857 77.8002 11.3333 77.7969H250C253.005 77.8002 255.885 78.9433 258.01 80.9756C260.135 83.0079 261.33 85.7634 261.333 88.6375V398.549C261.33 401.423 260.135 404.179 258.01 406.211C255.885 408.243 253.005 409.387 250 409.39ZM11.3333 79.0723C8.68208 79.0752 6.14031 80.0838 4.26559 81.877C2.39088 83.6702 1.33634 86.1015 1.33333 88.6375V398.549C1.33634 401.085 2.39086 403.517 4.26557 405.31C6.14028 407.103 8.68208 408.112 11.3333 408.115H250C252.651 408.112 255.193 407.103 257.068 405.31C258.942 403.517 259.997 401.085 260 398.549V88.6375C259.997 86.1015 258.942 83.6702 257.068 81.877C255.193 80.0838 252.651 79.0752 250 79.0723H11.3333Z" fill="#CCCCCC"/>
<path d="M203.797 158.287H136.262C134.847 158.286 133.489 157.746 132.489 156.788C131.488 155.83 130.926 154.531 130.926 153.177C130.926 151.823 131.488 150.524 132.489 149.565C133.489 148.607 134.847 148.068 136.262 148.066H203.797C204.499 148.066 205.195 148.197 205.844 148.454C206.492 148.71 207.082 149.086 207.579 149.561C208.076 150.036 208.47 150.599 208.739 151.22C209.008 151.84 209.146 152.505 209.146 153.177C209.146 153.849 209.008 154.514 208.739 155.134C208.47 155.754 208.076 156.318 207.579 156.793C207.082 157.267 206.492 157.644 205.844 157.9C205.195 158.157 204.499 158.288 203.797 158.287Z" fill="#E6E6E6"/>
<path d="M225.836 175.535H136.262C134.847 175.533 133.489 174.994 132.489 174.036C131.488 173.078 130.926 171.779 130.926 170.425C130.926 169.07 131.488 167.771 132.489 166.813C133.489 165.855 134.847 165.316 136.262 165.314H225.836C227.252 165.316 228.609 165.855 229.609 166.813C230.61 167.771 231.172 169.07 231.172 170.425C231.172 171.779 230.61 173.078 229.609 174.036C228.609 174.994 227.252 175.533 225.836 175.535Z" fill="#E6E6E6"/>
<path d="M203.699 241.687H35.4975C34.7954 241.688 34.0999 241.556 33.4509 241.3C32.8019 241.043 32.2122 240.667 31.7154 240.193C31.2185 239.718 30.8244 239.154 30.5555 238.534C30.2866 237.913 30.1482 237.248 30.1482 236.577C30.1482 235.905 30.2866 235.24 30.5555 234.62C30.8244 233.999 31.2185 233.435 31.7154 232.961C32.2122 232.486 32.8019 232.11 33.4509 231.853C34.0999 231.597 34.7954 231.465 35.4975 231.466H203.699C205.114 231.468 206.472 232.007 207.472 232.965C208.473 233.924 209.035 235.222 209.035 236.577C209.035 237.931 208.473 239.23 207.472 240.188C206.472 241.146 205.114 241.685 203.699 241.687Z" fill="#E6E6E6"/>
<path d="M225.737 258.935H35.4975C34.7954 258.936 34.0999 258.804 33.4509 258.548C32.8019 258.291 32.2122 257.915 31.7154 257.44C31.2185 256.966 30.8244 256.402 30.5555 255.782C30.2866 255.161 30.1482 254.496 30.1482 253.824C30.1482 253.153 30.2866 252.488 30.5555 251.867C30.8244 251.247 31.2185 250.683 31.7154 250.209C32.2122 249.734 32.8019 249.358 33.4509 249.101C34.0999 248.845 34.7954 248.713 35.4975 248.714H225.737C226.44 248.713 227.135 248.845 227.784 249.101C228.433 249.358 229.023 249.734 229.52 250.209C230.016 250.683 230.411 251.247 230.679 251.867C230.948 252.488 231.087 253.153 231.087 253.824C231.087 254.496 230.948 255.161 230.679 255.782C230.411 256.402 230.016 256.966 229.52 257.44C229.023 257.915 228.433 258.291 227.784 258.548C227.135 258.804 226.44 258.936 225.737 258.935Z" fill="#E6E6E6"/>
<path d="M203.699 298.577H35.4975C34.0806 298.577 32.7216 298.038 31.7197 297.08C30.7177 296.121 30.1548 294.822 30.1548 293.466C30.1548 292.111 30.7177 290.811 31.7197 289.853C32.7216 288.894 34.0806 288.356 35.4975 288.356H203.699C205.116 288.356 206.475 288.894 207.477 289.853C208.478 290.811 209.041 292.111 209.041 293.466C209.041 294.822 208.478 296.121 207.477 297.08C206.475 298.038 205.116 298.577 203.699 298.577Z" fill="#E6E6E6"/>
<path d="M225.737 315.824H35.4975C34.0806 315.824 32.7216 315.286 31.7197 314.328C30.7177 313.369 30.1548 312.069 30.1548 310.714C30.1548 309.358 30.7177 308.059 31.7197 307.1C32.7216 306.142 34.0806 305.603 35.4975 305.603H225.737C227.154 305.603 228.513 306.142 229.515 307.1C230.517 308.059 231.08 309.358 231.08 310.714C231.08 312.069 230.517 313.369 229.515 314.328C228.513 315.286 227.154 315.824 225.737 315.824Z" fill="#E6E6E6"/>
<path d="M203.699 355.466H35.4975C34.0806 355.466 32.7216 354.928 31.7197 353.969C30.7177 353.011 30.1548 351.711 30.1548 350.356C30.1548 349 30.7177 347.701 31.7197 346.742C32.7216 345.784 34.0806 345.245 35.4975 345.245H203.699C205.116 345.245 206.475 345.784 207.477 346.742C208.478 347.701 209.041 349 209.041 350.356C209.041 351.711 208.478 353.011 207.477 353.969C206.475 354.928 205.116 355.466 203.699 355.466Z" fill="#E6E6E6"/>
<path d="M225.737 372.714H35.4975C34.0806 372.714 32.7216 372.176 31.7197 371.217C30.7177 370.259 30.1548 368.959 30.1548 367.603C30.1548 366.248 30.7177 364.948 31.7197 363.99C32.7216 363.031 34.0806 362.493 35.4975 362.493H225.737C227.154 362.493 228.513 363.031 229.515 363.99C230.517 364.948 231.08 366.248 231.08 367.603C231.08 368.959 230.517 370.259 229.515 371.217C228.513 372.176 227.154 372.714 225.737 372.714Z" fill="#E6E6E6"/>
<path d="M560.667 331.593L322 331.593C318.995 331.59 316.115 330.447 313.99 328.415C311.865 326.382 310.67 323.627 310.667 320.753L310.667 10.8407C310.67 7.96664 311.865 5.21119 313.99 3.17889C316.114 1.1466 318.995 0.00342182 322 0.000185141L560.666 5.72205e-06C563.671 0.00323824 566.552 1.14639 568.677 3.17869C570.801 5.21098 571.996 7.96644 572 10.8405L572 320.753C571.997 323.627 570.801 326.382 568.677 328.414C566.552 330.447 563.671 331.59 560.667 331.593Z" fill="white"/>
<path d="M560.667 331.593L322 331.593C318.995 331.59 316.115 330.447 313.99 328.415C311.865 326.382 310.67 323.627 310.667 320.753L310.667 10.8407C310.67 7.96664 311.865 5.21119 313.99 3.17889C316.114 1.1466 318.995 0.00342182 322 0.000185141L560.666 5.72205e-06C563.671 0.00323824 566.552 1.14639 568.677 3.17869C570.801 5.21098 571.996 7.96644 572 10.8405L572 320.753C571.997 323.627 570.801 326.382 568.677 328.414C566.552 330.447 563.671 331.59 560.667 331.593ZM322 1.27554C319.349 1.27842 316.807 2.28711 314.932 4.08031C313.057 5.8735 312.003 8.30478 312 10.8407L312 320.753C312.003 323.289 313.058 325.72 314.932 327.513C316.807 329.306 319.349 330.315 322 330.318L560.667 330.318C563.318 330.315 565.86 329.306 567.734 327.513C569.609 325.72 570.664 323.289 570.667 320.753L570.666 10.8406C570.663 8.30459 569.609 5.87331 567.734 4.08011C565.859 2.28692 563.318 1.27824 560.666 1.27536L322 1.27554Z" fill="#CCCCCC"/>
<path d="M430.686 80.233C430.686 88.6191 428.086 96.8168 423.216 103.79C418.345 110.762 411.422 116.197 403.322 119.406C395.222 122.615 386.309 123.455 377.71 121.819C369.111 120.183 361.213 116.145 355.014 110.215C348.814 104.285 344.592 96.7299 342.882 88.505C341.172 80.2801 342.049 71.7548 345.404 64.0071C348.76 56.2595 354.441 49.6374 361.731 44.9784C369.021 40.3193 377.591 37.8326 386.358 37.8326C398.114 37.8361 409.386 42.3044 417.699 50.2553C426.011 58.2062 430.682 68.9888 430.686 80.233Z" fill="white"/>
<path d="M406.846 87.4882C406.362 114.606 364.191 114.601 363.711 87.4873C364.195 60.3708 406.366 60.375 406.846 87.4882Z" fill="#386CBA"/>
<path d="M384.423 95.9051L384.4 95.1342C389.955 95.8436 391.151 89.2585 385.549 91.7204L386.828 82.7814L387.627 82.8861L386.539 90.4898C392.437 89.65 390.255 96.6756 384.423 95.9051Z" fill="#2F2E41"/>
<path d="M395.916 83.5418H391.575V84.3127H395.916V83.5418Z" fill="#2F2E41"/>
<path d="M382.215 83.5418H377.874V84.3127H382.215V83.5418Z" fill="#2F2E41"/>
<path d="M392.27 116.331C393.116 110.869 386.431 111.949 382.893 111.895C382.322 111.896 381.759 112.02 381.245 112.256C380.731 112.492 380.278 112.835 379.92 113.26C379.561 113.684 379.307 114.18 379.174 114.711C379.041 115.241 379.034 115.794 379.153 116.327C376.414 117.137 373.878 118.475 371.702 120.259C380.875 123.319 390.842 123.424 400.084 120.56C397.831 118.625 395.165 117.182 392.27 116.331Z" fill="#2F2E41"/>
<path d="M375.139 77.731C379.136 75.5215 383.983 77.2166 388.112 78.1434C395.945 80.4467 406.93 77.5624 407.882 68.637C408.873 60.3361 397.002 55.7098 393.208 63.9715L394.312 63.8334C382.007 46.3404 360.601 47.0039 360.742 71.0536C360.696 71.7966 361.905 71.7941 361.951 71.0532C361.497 56.881 371.303 47.1934 385.164 56.301C388.26 58.6191 390.99 61.3527 393.268 64.417C394.712 65.9644 395.026 59.3003 401.935 61.0458C409.539 63.8635 407.058 74.278 400.261 76.5643C391.864 80.668 382.769 72.7115 374.529 76.732C374.396 76.8122 374.301 76.9384 374.264 77.0842C374.227 77.23 374.25 77.3839 374.329 77.5135C374.408 77.6431 374.537 77.7382 374.688 77.7787C374.839 77.8193 375.001 77.8022 375.139 77.731Z" fill="#2F2E41"/>
<path d="M386.358 123.79C374.911 123.781 363.888 119.644 355.488 112.206C347.087 104.767 341.927 94.5736 341.036 83.6572C340.145 72.7409 343.589 61.9044 350.68 53.3091C357.772 44.7137 367.99 38.9911 379.297 37.2826C390.604 35.5741 402.169 38.0053 411.686 44.0913C421.202 50.1772 427.97 59.4707 430.64 70.1182C433.31 80.7657 431.686 91.9847 426.092 101.538C420.498 111.091 411.345 118.276 400.458 121.66C395.905 123.076 391.146 123.795 386.358 123.79ZM386.358 38.9889C377.828 38.9878 369.49 41.4062 362.397 45.9384C355.304 50.4706 349.776 56.9129 346.511 64.4506C343.246 71.9882 342.391 80.2827 344.055 88.285C345.719 96.2872 349.826 103.638 355.858 109.407C361.89 115.176 369.574 119.105 377.94 120.697C386.306 122.288 394.978 121.471 402.858 118.348C410.739 115.225 417.474 109.937 422.212 103.153C426.95 96.3681 429.478 88.392 429.477 80.233C429.464 69.2982 424.917 58.8148 416.834 51.0827C408.75 43.3506 397.79 39.0013 386.358 38.9889Z" fill="#CCCCCC"/>
<path d="M514.463 80.4904L446.929 80.4905C445.512 80.4905 444.153 79.9521 443.151 78.9937C442.149 78.0353 441.586 76.7354 441.586 75.38C441.586 74.0247 442.149 72.7248 443.151 71.7664C444.153 70.808 445.512 70.2696 446.929 70.2696L514.463 70.2696C515.88 70.2696 517.239 70.808 518.241 71.7664C519.243 72.7248 519.806 74.0246 519.806 75.38C519.806 76.7354 519.243 78.0352 518.241 78.9936C517.239 79.952 515.88 80.4904 514.463 80.4904Z" fill="#E6E6E6"/>
<path d="M536.502 97.7381L446.929 97.7382C446.227 97.739 445.531 97.6074 444.882 97.351C444.233 97.0945 443.644 96.7182 443.147 96.2436C442.65 95.769 442.256 95.2053 441.987 94.5849C441.718 93.9644 441.58 93.2994 441.58 92.6277C441.58 91.9561 441.718 91.291 441.987 90.6706C442.256 90.0502 442.65 89.4865 443.147 89.0119C443.644 88.5373 444.233 88.1609 444.882 87.9045C445.531 87.648 446.227 87.5165 446.929 87.5173L536.502 87.5172C537.919 87.5172 539.278 88.0557 540.28 89.014C541.282 89.9724 541.845 91.2723 541.845 92.6277C541.845 93.983 541.282 95.2829 540.28 96.2413C539.278 97.1997 537.919 97.7381 536.502 97.7381Z" fill="#E6E6E6"/>
<path d="M514.365 163.89L346.164 163.89C344.748 163.889 343.391 163.35 342.391 162.391C341.39 161.433 340.828 160.134 340.828 158.78C340.828 157.426 341.39 156.127 342.391 155.169C343.391 154.21 344.748 153.671 346.164 153.67L514.365 153.669C515.782 153.669 517.141 154.208 518.143 155.166C519.145 156.125 519.708 157.424 519.708 158.78C519.708 160.135 519.145 161.435 518.143 162.393C517.141 163.352 515.782 163.89 514.365 163.89Z" fill="#E6E6E6"/>
<path d="M536.404 181.138L346.164 181.138C345.462 181.139 344.766 181.007 344.117 180.751C343.468 180.494 342.879 180.118 342.382 179.643C341.885 179.169 341.491 178.605 341.222 177.985C340.953 177.364 340.815 176.699 340.815 176.028C340.815 175.356 340.953 174.691 341.222 174.07C341.491 173.45 341.885 172.886 342.382 172.412C342.879 171.937 343.468 171.561 344.117 171.304C344.766 171.048 345.462 170.916 346.164 170.917L536.404 170.917C537.821 170.917 539.18 171.455 540.182 172.414C541.184 173.372 541.747 174.672 541.747 176.027C541.747 177.383 541.184 178.683 540.182 179.641C539.18 180.599 537.821 181.138 536.404 181.138Z" fill="#E6E6E6"/>
<path d="M514.365 220.78L346.164 220.78C344.748 220.778 343.391 220.239 342.391 219.281C341.39 218.323 340.828 217.024 340.828 215.669C340.828 214.315 341.39 213.016 342.391 212.058C343.391 211.1 344.748 210.561 346.164 210.559L514.365 210.559C515.782 210.559 517.141 211.097 518.143 212.056C519.145 213.014 519.708 214.314 519.708 215.669C519.708 217.025 519.145 218.325 518.143 219.283C517.141 220.241 515.782 220.78 514.365 220.78Z" fill="#E6E6E6"/>
<path d="M536.404 238.028L346.164 238.028C345.462 238.028 344.767 237.897 344.118 237.64C343.469 237.384 342.879 237.008 342.382 236.533C341.885 236.058 341.491 235.495 341.222 234.874C340.953 234.254 340.815 233.589 340.815 232.917C340.815 232.246 340.953 231.58 341.222 230.96C341.491 230.34 341.885 229.776 342.382 229.301C342.879 228.827 343.469 228.45 344.118 228.194C344.767 227.937 345.462 227.806 346.164 227.807L536.404 227.807C537.821 227.807 539.18 228.345 540.182 229.303C541.184 230.262 541.747 231.562 541.747 232.917C541.747 234.272 541.184 235.572 540.182 236.531C539.18 237.489 537.821 238.028 536.404 238.028Z" fill="#E6E6E6"/>
<path d="M514.365 277.669L346.164 277.669C344.747 277.669 343.388 277.131 342.386 276.173C341.384 275.214 340.821 273.914 340.821 272.559C340.821 271.204 341.384 269.904 342.386 268.945C343.388 267.987 344.747 267.449 346.164 267.449L514.365 267.448C515.782 267.448 517.141 267.987 518.143 268.945C519.145 269.904 519.708 271.204 519.708 272.559C519.708 273.914 519.145 275.214 518.143 276.173C517.141 277.131 515.782 277.669 514.365 277.669Z" fill="#E6E6E6"/>
<path d="M536.404 294.917L346.164 294.917C344.747 294.917 343.388 294.379 342.386 293.42C341.384 292.462 340.821 291.162 340.821 289.807C340.821 288.451 341.384 287.152 342.386 286.193C343.388 285.235 344.747 284.696 346.164 284.696L536.404 284.696C537.821 284.696 539.18 285.235 540.182 286.193C541.184 287.151 541.747 288.451 541.747 289.807C541.747 291.162 541.184 292.462 540.182 293.42C539.18 294.379 537.821 294.917 536.404 294.917Z" fill="#E6E6E6"/>
<path d="M416.667 464.868H178C174.995 464.865 172.114 463.721 169.99 461.689C167.865 459.657 166.67 456.901 166.667 454.027V144.116C166.67 141.241 167.865 138.486 169.99 136.454C172.114 134.421 174.995 133.278 178 133.275H416.667C419.671 133.278 422.552 134.421 424.677 136.454C426.801 138.486 427.996 141.241 428 144.116V454.027C427.996 456.901 426.801 459.657 424.677 461.689C422.552 463.721 419.671 464.865 416.667 464.868Z" fill="white"/>
<path d="M197.905 213.059C197.898 218.639 199.045 224.166 201.282 229.321C203.519 234.475 206.801 239.155 210.938 243.09C211.284 243.418 211.639 243.745 211.998 244.065C214.158 245.996 216.515 247.714 219.034 249.196C219.517 249.481 220.001 249.754 220.497 250.02C223.044 251.393 225.727 252.521 228.508 253.385C228.987 253.536 229.475 253.678 229.962 253.809C238.801 256.234 248.208 255.981 256.89 253.085C257.059 253.027 257.228 252.969 257.394 252.911C265.015 250.259 271.73 245.658 276.807 239.609C281.884 233.559 285.129 226.294 286.189 218.603C287.249 210.912 286.082 203.09 282.817 195.989C279.551 188.888 274.312 182.78 267.669 178.33C261.026 173.879 253.234 171.258 245.141 170.749C237.049 170.241 228.965 171.866 221.771 175.447C214.577 179.029 208.548 184.429 204.34 191.061C200.132 197.692 197.906 205.301 197.905 213.059Z" fill="white"/>
<path d="M232.872 233.841C232.893 237.126 231.628 240.299 229.324 242.736C227.045 245.128 223.652 246.715 220.228 246.059C217.075 245.454 214.512 242.818 214.832 239.629C214.885 238.939 215.095 238.267 215.447 237.662C215.799 237.057 216.285 236.533 216.871 236.126C217.456 235.718 218.128 235.438 218.838 235.305C219.549 235.171 220.281 235.188 220.984 235.353C223.98 236.096 225.173 240.225 222.677 242.163C222.078 242.628 221.218 241.815 221.822 241.346C222.195 241.02 222.476 240.609 222.64 240.152C222.804 239.695 222.846 239.206 222.761 238.73C222.676 238.254 222.468 237.805 222.155 237.426C221.843 237.047 221.435 236.749 220.971 236.559C220.423 236.391 219.842 236.344 219.272 236.423C218.703 236.502 218.159 236.703 217.683 237.012C217.207 237.322 216.811 237.73 216.524 238.208C216.237 238.685 216.068 239.219 216.029 239.768C215.831 242.456 217.984 244.481 220.625 244.957C223.481 245.473 226.313 244.075 228.248 242.145C230.466 239.903 231.69 236.927 231.663 233.841C231.668 233.691 231.734 233.549 231.847 233.445C231.96 233.34 232.111 233.282 232.268 233.282C232.424 233.282 232.575 233.34 232.688 233.445C232.801 233.549 232.867 233.691 232.872 233.841V233.841Z" fill="#2F2E41"/>
<path d="M244.677 241.192C256.588 241.192 266.244 231.956 266.244 220.563C266.244 209.169 256.588 199.933 244.677 199.933C232.766 199.933 223.11 209.169 223.11 220.563C223.11 231.956 232.766 241.192 244.677 241.192Z" fill="#386CBA"/>
<path d="M243.574 229.365L243.551 228.594C245.051 228.554 246.372 228.464 247.366 227.77C247.647 227.562 247.879 227.299 248.044 226.997C248.21 226.696 248.306 226.365 248.325 226.025C248.343 225.817 248.31 225.608 248.229 225.415C248.149 225.221 248.023 225.048 247.861 224.909C247.485 224.691 247.056 224.575 246.617 224.571C246.178 224.567 245.746 224.677 245.367 224.888L244.7 225.18L245.979 216.241L246.778 216.346L245.69 223.95C246.135 223.792 246.615 223.743 247.085 223.808C247.555 223.872 248 224.049 248.381 224.32C248.637 224.534 248.838 224.802 248.968 225.102C249.098 225.402 249.154 225.727 249.131 226.052C249.107 226.508 248.98 226.954 248.757 227.359C248.534 227.763 248.222 228.116 247.841 228.393C246.565 229.285 244.906 229.329 243.574 229.365Z" fill="#2F2E41"/>
<path d="M255.067 217.002H250.727V217.773H255.067V217.002Z" fill="#2F2E41"/>
<path d="M241.366 217.002H237.025V217.773H241.366V217.002Z" fill="#2F2E41"/>
<path d="M229.962 253.809C238.801 256.234 248.208 255.981 256.89 253.085C257.059 253.027 257.228 252.969 257.393 252.911C255.348 251.402 253.034 250.258 250.563 249.535C250.738 248.942 250.735 248.314 250.555 247.723C250.31 246.974 249.819 246.32 249.155 245.858C248.491 245.397 247.688 245.154 246.868 245.164H241.613C240.793 245.153 239.992 245.396 239.329 245.857C238.666 246.317 238.177 246.971 237.934 247.719C237.753 248.312 237.751 248.941 237.925 249.535C235.749 250.172 233.692 251.136 231.832 252.391C231.458 252.642 231.095 252.904 230.744 253.177C230.478 253.382 230.216 253.594 229.962 253.809Z" fill="#2F2E41"/>
<path d="M261.572 218.374C261.572 221.851 263.362 224.734 265.687 225.235C265.924 225.286 266.166 225.312 266.408 225.312C269.072 225.312 271.244 222.202 271.244 218.374C271.304 216.401 270.646 214.469 269.382 212.908C268.989 212.453 268.506 212.077 267.96 211.802C267.481 211.563 266.949 211.437 266.408 211.436C265.666 211.445 264.946 211.677 264.349 212.099C262.709 213.209 261.572 215.603 261.572 218.374Z" fill="#3F3D56"/>
<path d="M218.453 218.374C218.453 221.365 219.775 223.917 221.629 224.892C222.136 225.164 222.708 225.309 223.289 225.313C223.419 225.312 223.548 225.305 223.676 225.289C226.158 225.008 228.125 222.017 228.125 218.374C228.125 215.456 226.864 212.955 225.082 211.933C224.544 211.613 223.923 211.441 223.289 211.436C222.749 211.437 222.217 211.563 221.738 211.802C221.19 212.079 220.705 212.456 220.311 212.912C219.051 214.473 218.394 216.403 218.453 218.374Z" fill="#3F3D56"/>
<path d="M221.931 224.227C222.026 224.227 222.121 224.205 222.206 224.163C222.292 224.121 222.365 224.061 222.421 223.986C222.477 223.911 222.514 223.825 222.528 223.735C222.542 223.644 222.534 223.551 222.503 223.464C221.348 220.178 221.001 216.681 221.488 213.246C221.975 209.81 223.284 206.529 225.313 203.656C227.341 200.783 230.035 198.396 233.185 196.681C236.335 194.966 239.856 193.968 243.475 193.766C247.093 193.564 250.711 194.163 254.048 195.516C257.386 196.87 260.351 198.94 262.716 201.568C265.08 204.196 266.779 207.31 267.681 210.668C268.582 214.026 268.662 217.537 267.914 220.93C267.881 221.08 267.912 221.236 268 221.364C268.087 221.492 268.225 221.582 268.381 221.614C268.538 221.645 268.701 221.616 268.835 221.533C268.97 221.449 269.064 221.318 269.097 221.168C269.884 217.602 269.8 213.91 268.853 210.379C267.905 206.848 266.119 203.574 263.633 200.811C261.148 198.048 258.029 195.871 254.521 194.448C251.012 193.025 247.208 192.396 243.403 192.608C239.599 192.82 235.897 193.869 232.585 195.673C229.274 197.476 226.441 199.986 224.308 203.007C222.176 206.028 220.8 209.478 220.288 213.09C219.777 216.702 220.142 220.379 221.358 223.834C221.398 223.948 221.475 224.048 221.578 224.119C221.681 224.189 221.804 224.227 221.931 224.227Z" fill="#3F3D56"/>
<path d="M255.511 207.197C255.869 207.756 256.018 208.414 255.933 209.064C255.848 209.715 255.535 210.318 255.044 210.776C253.874 212.027 252.006 212.106 250.385 211.874C248.566 211.613 246.636 210.798 244.795 211.347C243.225 211.815 242.105 213.177 240.474 213.519C239.028 213.823 237.299 213.421 236.791 211.947C236.548 211.238 237.715 210.934 237.957 211.639C238.285 212.593 239.702 212.574 240.513 212.31C241.813 211.886 242.815 210.856 244.093 210.364C245.617 209.913 247.248 209.917 248.769 210.377C250.215 210.688 251.879 211.15 253.32 210.568C254.386 210.138 255.234 208.781 254.467 207.78C254.007 207.179 255.056 206.602 255.511 207.197V207.197Z" fill="#2F2E41"/>
<path d="M242.233 256.616C237.969 256.619 233.725 256.048 229.627 254.92C229.146 254.791 228.64 254.644 228.132 254.484C225.276 253.595 222.52 252.438 219.903 251.028C219.413 250.765 218.92 250.487 218.399 250.18C215.813 248.658 213.392 246.893 211.172 244.91C210.806 244.583 210.443 244.248 210.088 243.913C203.108 237.256 198.575 228.613 197.169 219.281C195.764 209.95 197.562 200.434 202.293 192.163C207.024 183.893 214.434 177.314 223.408 173.415C232.382 169.517 242.437 168.509 252.061 170.543C261.685 172.577 270.36 177.543 276.781 184.696C283.203 191.848 287.024 200.801 287.672 210.208C288.319 219.616 285.758 228.97 280.373 236.867C274.988 244.763 267.069 250.774 257.807 253.998C257.64 254.056 257.468 254.115 257.296 254.174C252.455 255.795 247.362 256.621 242.233 256.616ZM242.233 171.815C233.699 171.815 225.357 174.238 218.263 178.775C211.17 183.313 205.643 189.763 202.384 197.307C199.124 204.851 198.278 213.15 199.953 221.155C201.627 229.159 205.747 236.508 211.791 242.271C212.126 242.587 212.472 242.907 212.822 243.22C214.924 245.097 217.217 246.769 219.667 248.211C220.161 248.502 220.625 248.763 221.088 249.012C223.566 250.347 226.177 251.444 228.881 252.286C229.36 252.436 229.833 252.573 230.289 252.696C238.889 255.057 248.042 254.811 256.49 251.994L256.979 251.825C266.505 248.508 274.505 242.087 279.575 233.689C284.644 225.291 286.457 215.453 284.697 205.903C282.938 196.353 277.716 187.701 269.951 181.467C262.185 175.234 252.371 171.816 242.233 171.815L242.233 171.815Z" fill="#CCCCCC"/>
<path d="M416.667 464.868H178C174.995 464.865 172.114 463.721 169.99 461.689C167.865 459.657 166.67 456.901 166.667 454.027V144.116C166.67 141.241 167.865 138.486 169.99 136.454C172.114 134.421 174.995 133.278 178 133.275H416.667C419.671 133.278 422.552 134.421 424.677 136.454C426.801 138.486 427.996 141.241 428 144.116V454.027C427.996 456.901 426.801 459.657 424.677 461.689C422.552 463.721 419.671 464.865 416.667 464.868ZM178 134.55C175.349 134.553 172.807 135.562 170.932 137.355C169.057 139.148 168.003 141.58 168 144.115V454.027C168.003 456.563 169.057 458.995 170.932 460.788C172.807 462.581 175.349 463.59 178 463.593H416.667C419.318 463.59 421.86 462.581 423.734 460.788C425.609 458.995 426.664 456.563 426.667 454.027V144.116C426.664 141.58 425.609 139.148 423.734 137.355C421.86 135.562 419.318 134.553 416.667 134.55H178Z" fill="#3F3D56"/>
<path d="M370.463 213.765H302.929C301.512 213.765 300.153 213.227 299.151 212.269C298.149 211.31 297.586 210.01 297.586 208.655C297.586 207.3 298.149 206 299.151 205.041C300.153 204.083 301.512 203.544 302.929 203.544H370.463C371.88 203.544 373.239 204.083 374.241 205.041C375.243 206 375.806 207.3 375.806 208.655C375.806 210.01 375.243 211.31 374.241 212.269C373.239 213.227 371.88 213.765 370.463 213.765Z" fill="#386CBA"/>
<path d="M392.502 231.013H302.929C301.512 231.013 300.153 230.475 299.151 229.516C298.149 228.558 297.586 227.258 297.586 225.903C297.586 224.547 298.149 223.247 299.151 222.289C300.153 221.331 301.512 220.792 302.929 220.792H392.502C393.919 220.792 395.278 221.331 396.28 222.289C397.282 223.247 397.845 224.547 397.845 225.903C397.845 227.258 397.282 228.558 396.28 229.516C395.278 230.475 393.919 231.013 392.502 231.013Z" fill="#386CBA"/>
<path d="M370.365 297.165H202.164C200.747 297.165 199.388 296.627 198.386 295.668C197.384 294.71 196.821 293.41 196.821 292.055C196.821 290.699 197.384 289.4 198.386 288.441C199.388 287.483 200.747 286.944 202.164 286.944H370.365C371.782 286.944 373.141 287.483 374.143 288.441C375.145 289.4 375.708 290.699 375.708 292.055C375.708 293.41 375.145 294.71 374.143 295.668C373.141 296.627 371.782 297.165 370.365 297.165Z" fill="#CCCCCC"/>
<path d="M392.404 314.413H202.164C200.747 314.413 199.388 313.874 198.386 312.916C197.384 311.958 196.821 310.658 196.821 309.302C196.821 307.947 197.384 306.647 198.386 305.689C199.388 304.73 200.747 304.192 202.164 304.192H392.404C393.821 304.192 395.18 304.73 396.182 305.689C397.184 306.647 397.747 307.947 397.747 309.302C397.747 310.658 397.184 311.958 396.182 312.916C395.18 313.874 393.821 314.413 392.404 314.413Z" fill="#CCCCCC"/>
<path d="M370.365 354.055H202.164C200.748 354.053 199.391 353.514 198.391 352.556C197.39 351.597 196.828 350.299 196.828 348.944C196.828 347.59 197.39 346.291 198.391 345.333C199.391 344.375 200.748 343.836 202.164 343.834H370.365C371.782 343.834 373.141 344.372 374.143 345.331C375.145 346.289 375.708 347.589 375.708 348.944C375.708 350.3 375.145 351.6 374.143 352.558C373.141 353.516 371.782 354.055 370.365 354.055Z" fill="#CCCCCC"/>
<path d="M392.404 371.302H202.164C200.748 371.301 199.391 370.762 198.391 369.803C197.39 368.845 196.828 367.546 196.828 366.192C196.828 364.838 197.39 363.539 198.391 362.581C199.391 361.622 200.748 361.083 202.164 361.082H392.404C393.821 361.082 395.18 361.62 396.182 362.578C397.184 363.537 397.747 364.837 397.747 366.192C397.747 367.547 397.184 368.847 396.182 369.806C395.18 370.764 393.821 371.302 392.404 371.302Z" fill="#CCCCCC"/>
<path d="M370.365 410.944H202.164C200.747 410.944 199.388 410.406 198.386 409.447C197.384 408.489 196.821 407.189 196.821 405.834C196.821 404.478 197.384 403.179 198.386 402.22C199.388 401.262 200.747 400.723 202.164 400.723H370.365C371.782 400.723 373.141 401.262 374.143 402.22C375.145 403.179 375.708 404.478 375.708 405.834C375.708 407.189 375.145 408.489 374.143 409.447C373.141 410.406 371.782 410.944 370.365 410.944Z" fill="#CCCCCC"/>
<path d="M392.404 428.192H202.164C200.747 428.192 199.388 427.654 198.386 426.695C197.384 425.737 196.821 424.437 196.821 423.082C196.821 421.726 197.384 420.426 198.386 419.468C199.388 418.509 200.747 417.971 202.164 417.971H392.404C393.821 417.971 395.18 418.509 396.182 419.468C397.184 420.426 397.747 421.726 397.747 423.082C397.747 424.437 397.184 425.737 396.182 426.695C395.18 427.654 393.821 428.192 392.404 428.192Z" fill="#CCCCCC"/>
<path d="M413.897 394.298C406.98 394.291 400.128 395.588 393.735 398.115C387.342 400.642 381.532 404.35 376.638 409.026C371.743 413.702 367.861 419.255 365.212 425.368C362.562 431.48 361.199 438.032 361.199 444.649C361.199 451.266 362.562 457.818 365.211 463.93C367.86 470.043 371.743 475.596 376.637 480.272C381.532 484.949 387.341 488.656 393.735 491.183C400.128 493.71 406.979 495.007 413.897 495H413.897C427.842 494.976 441.207 489.661 451.059 480.221C460.911 470.781 466.444 457.988 466.444 444.649C466.444 431.311 460.911 418.517 451.059 409.077C441.207 399.637 427.842 394.322 413.897 394.298Z" fill="#386CBA"/>
<path d="M408.903 465.56C407.517 465.562 406.168 465.133 405.059 464.338L404.99 464.289L390.514 453.697C389.162 452.704 388.277 451.237 388.055 449.62C387.832 448.003 388.29 446.368 389.328 445.073C390.365 443.779 391.897 442.931 393.588 442.717C395.278 442.503 396.988 442.939 398.342 443.93L407.719 450.808L429.876 423.159C430.389 422.518 431.03 421.98 431.761 421.576C432.492 421.171 433.299 420.909 434.137 420.803C434.974 420.697 435.825 420.75 436.64 420.959C437.456 421.168 438.221 421.528 438.891 422.02L438.891 422.02L438.893 422.021L438.756 422.204L438.897 422.021C440.249 423.015 441.133 424.481 441.356 426.098C441.579 427.715 441.122 429.351 440.086 430.646L414.025 463.153C413.422 463.902 412.647 464.508 411.759 464.924C410.872 465.34 409.896 465.555 408.908 465.553L408.903 465.56Z" fill="white"/>
</g>
<defs>
<clipPath id="clip0_8_20">
<rect width="572" height="495" fill="white"/>
</clipPath>
</defs>
</svg>
